 <svg version="1.0" xmlns="http://www.w3.org/2000/svg" width="700.000000pt" height="700.000000pt" viewBox="0 0 700.000000 700.000000" preserveAspectRatio="xMidYMid meet">
<metadata>
Created by potrace 1.12, written by Peter Selinger 2001-2015
</metadata>
<g transform="translate(0.000000,700.000000) scale(0.100000,-0.100000)" fill="#ffffff" stroke="none">
<path d="M2685 5590 c-50 -17 -201 -94 -220 -112 -5 -5 3 -4 18 1 85 32 83 -2
-7 -106 -42 -48 -76 -91 -76 -95 0 -5 9 -8 20 -8 42 0 20 -75 -49 -160 -44
-56 -57 -67 -98 -86 -32 -14 -47 -32 -18 -20 8 3 22 3 31 -1 22 -8 11 -44 -33
-110 -28 -43 -33 -56 -23 -68 15 -19 -1 -96 -38 -175 -14 -30 -25 -65 -23 -78
4 -39 -28 -131 -49 -142 -16 -9 -19 -6 -23 22 -2 18 -5 -13 -5 -69 -2 -84 -5
-103 -17 -103 -8 0 -15 -4 -15 -10 0 -5 -7 -10 -15 -10 -21 0 -19 -22 7 -82
18 -42 19 -51 7 -59 -22 -14 -96 -11 -102 4 -7 20 -59 10 -90 -17 -39 -33 -48
-68 -45 -170 2 -70 -1 -97 -12 -111 -14 -17 -15 -16 -21 6 -11 39 -10 154 2
211 15 71 55 153 91 183 32 27 58 24 58 -7 0 -26 24 -18 28 10 2 14 -6 27 -24
38 -25 17 -28 17 -63 -2 -97 -52 -157 -280 -121 -464 4 -25 5 -51 0 -59 -4 -8
-3 -25 3 -38 l10 -22 35 30 c33 29 121 74 129 66 2 -2 -21 -21 -52 -42 -50
-35 -105 -93 -105 -110 0 -4 20 -4 45 -1 51 8 56 0 25 -44 -11 -15 -24 -39
-30 -54 -9 -25 -8 -26 11 -15 29 15 35 4 21 -34 -7 -18 -28 -79 -48 -135 -19
-57 -41 -113 -49 -125 -21 -30 -19 -35 11 -29 25 5 26 3 20 -23 -6 -25 -5 -27
9 -15 27 22 36 0 25 -65 -10 -60 -9 -88 12 -219 9 -62 12 -68 24 -51 11 15 14
16 19 3 10 -25 11 -141 1 -177 l-8 -35 28 19 c16 10 34 26 41 34 10 14 13 13
21 -9 5 -14 13 -47 17 -75 l8 -50 10 38 c9 38 30 49 41 21 3 -9 7 -37 7 -62 1
-49 16 -121 18 -88 1 15 4 16 16 6 8 -7 15 -18 15 -26 0 -23 23 -64 35 -64 7
0 29 16 48 36 36 38 57 38 57 2 0 -26 42 -138 53 -138 4 0 7 13 7 29 0 52 17
43 71 -36 59 -86 63 -108 40 -218 -7 -33 -12 -111 -12 -173 0 -69 -3 -110 -9
-107 -6 4 -10 13 -10 21 0 8 -7 14 -15 14 -11 0 -15 12 -15 51 0 54 -29 179
-56 245 -21 51 -120 174 -140 174 -14 0 -15 -14 -12 -96 l3 -96 -37 43 c-50
58 -94 148 -117 238 -17 70 -19 73 -31 51 -7 -13 -13 -61 -14 -107 0 -45 -3
-83 -5 -83 -7 0 -31 35 -66 97 -36 61 -70 188 -59 216 3 8 1 18 -5 21 -13 9
-39 -41 -47 -93 -8 -49 -19 -52 -33 -8 -27 88 -21 261 15 385 9 30 13 56 9 60
-8 8 -40 -33 -57 -73 -16 -39 -35 -58 -43 -45 -3 5 -1 10 4 10 6 0 11 15 11
33 0 19 7 56 15 83 19 62 19 87 -1 52 -8 -16 -18 -28 -23 -28 -4 0 -6 51 -4
113 l3 112 -19 -58 c-10 -32 -25 -64 -31 -72 -7 -9 -8 -15 -2 -15 18 0 22 -31
8 -58 -12 -23 -12 -28 3 -38 15 -12 14 -16 -4 -51 -10 -21 -24 -45 -31 -53 -6
-8 -24 -46 -39 -84 -23 -60 -25 -74 -16 -110 16 -65 29 -135 40 -217 6 -41 17
-88 25 -105 16 -30 21 -66 10 -77 -12 -12 -125 53 -137 80 -10 23 -9 28 21 52
30 26 31 29 25 80 -5 43 -10 54 -30 62 -29 11 -46 54 -38 96 3 18 0 42 -6 55
-7 13 -15 30 -19 38 -3 8 -27 26 -53 39 -57 28 -59 46 -16 106 l32 44 -13 63
c-6 35 -16 101 -20 147 -8 89 -6 85 -71 132 -37 26 -28 74 22 118 41 37 42 39
49 122 5 46 14 112 21 146 12 57 11 65 -7 99 -10 20 -25 38 -31 41 -29 11 -6
63 27 63 32 0 67 56 104 169 39 118 40 131 20 252 -7 43 14 69 55 69 16 0 34
7 41 15 7 8 18 15 24 16 6 0 44 50 85 112 68 104 74 116 76 170 1 32 7 63 13
69 6 6 32 14 59 19 42 8 58 20 131 92 46 45 88 90 94 101 5 10 14 45 18 78 9
64 24 82 73 93 15 4 27 11 27 15 0 5 18 15 40 21 46 14 51 33 20 72 -24 30
-26 57 -5 57 8 0 17 11 21 24 5 23 55 56 83 56 6 0 11 5 11 10 0 13 -7 13 -72
-1 -84 -18 -106 -34 -133 -96 -14 -30 -25 -62 -25 -70 0 -8 -14 -28 -31 -44
-28 -26 -38 -29 -95 -29 l-64 0 -79 -69 c-43 -39 -93 -88 -110 -110 -29 -36
-32 -46 -30 -98 2 -32 -1 -68 -5 -81 -7 -20 -12 -22 -42 -16 -24 4 -48 1 -73
-10 -35 -16 -47 -31 -131 -166 -5 -8 -19 -37 -31 -63 -19 -42 -20 -53 -10 -86
6 -21 18 -44 26 -51 13 -11 11 -18 -16 -51 -20 -25 -39 -39 -53 -39 -29 0 -72
-33 -91 -71 -15 -28 -85 -244 -85 -257 1 -4 7 5 16 20 20 39 44 26 44 -23 0
-25 -6 -41 -16 -47 -15 -8 -15 -11 0 -34 25 -38 12 -78 -24 -78 -31 0 -70 -43
-70 -77 0 -10 -4 -23 -9 -29 -5 -5 -13 -64 -17 -132 l-7 -123 35 -37 c46 -48
56 -95 25 -124 -63 -62 -69 -101 -42 -280 13 -85 20 -107 42 -130 15 -15 36
-31 47 -34 12 -4 24 -12 28 -18 11 -16 10 -56 -1 -56 -21 0 -41 -33 -41 -66 0
-38 17 -120 29 -144 5 -8 16 -41 25 -72 22 -75 55 -114 105 -122 35 -5 41 -10
56 -51 16 -41 16 -46 1 -69 -17 -26 -21 -62 -10 -91 6 -15 8 -14 25 1 15 14
21 14 34 4 12 -10 13 -16 4 -26 -6 -8 -18 -14 -25 -14 -8 0 -14 -2 -14 -4 0
-10 49 -87 90 -143 45 -62 71 -77 150 -85 24 -3 25 -7 27 -71 2 -56 7 -74 32
-110 65 -94 192 -187 256 -187 35 0 47 -6 82 -42 22 -24 44 -52 47 -63 19 -64
227 -206 305 -208 20 -1 48 2 63 7 24 7 29 5 37 -15 5 -13 17 -31 27 -41 23
-20 90 -48 115 -48 11 0 28 -9 38 -19 26 -26 47 -9 54 41 6 36 4 38 -48 68
-63 36 -79 54 -35 39 17 -6 37 -8 46 -5 13 5 11 13 -15 48 -17 23 -29 44 -26
46 2 2 20 -6 40 -18 21 -13 40 -19 45 -14 5 5 -9 38 -31 75 -33 55 -41 79 -46
138 -4 50 -3 71 6 71 6 0 11 -8 11 -18 0 -10 7 -28 16 -40 18 -27 38 -17 48
23 9 34 26 31 26 -4 0 -35 18 -91 36 -111 12 -12 14 -11 14 12 0 41 16 42 47
3 15 -19 33 -35 40 -35 6 0 22 -17 34 -37 70 -116 112 -144 108 -70 -1 23 -2
57 -1 76 l2 34 31 -44 c43 -61 120 -139 137 -139 8 0 19 13 25 29 l10 28 26
-21 c93 -76 172 -162 182 -198 7 -29 15 -38 27 -36 9 2 18 12 21 23 7 38 62
105 139 170 l77 65 5 -28 c11 -58 54 -32 163 98 l37 45 -2 -69 c-2 -52 1 -70
11 -74 16 -5 62 46 93 105 12 23 32 44 43 47 11 3 28 19 38 36 23 38 37 38 37
0 0 -16 5 -30 10 -30 13 0 28 37 45 105 l12 50 17 -40 17 -40 24 29 c12 16 28
25 34 22 26 -16 6 -97 -44 -180 -50 -84 -45 -97 22 -51 20 13 39 23 41 20 2
-2 -11 -24 -29 -49 -18 -25 -30 -49 -26 -52 3 -3 31 0 62 7 69 15 85 6 68 -44
-27 -78 -27 -78 1 -66 20 10 26 20 26 44 0 23 12 48 41 83 34 44 39 56 34 84
-8 43 7 80 57 146 23 29 38 55 36 58 -10 9 -98 -110 -110 -148 -6 -21 -14 -38
-18 -38 -10 0 -36 32 -43 52 -14 41 -267 398 -369 521 -46 56 -47 59 -34 85
35 67 128 120 228 129 34 4 55 10 51 16 -3 6 -30 7 -65 3 -74 -7 -145 -44
-199 -103 -21 -24 -43 -43 -47 -42 -11 0 -137 168 -137 181 0 18 161 69 237
75 92 8 135 -2 170 -40 29 -31 30 -31 23 -7 -12 40 -33 58 -85 70 -81 20 -159
2 -410 -90 -183 -68 -362 -116 -480 -129 -101 -11 -251 -37 -300 -51 -45 -13
-50 -13 -45 3 4 9 -28 11 -147 9 -174 -4 -206 5 -243 68 -18 31 -20 53 -20
210 -1 147 2 181 17 215 24 54 74 110 162 184 41 34 87 80 102 102 l27 40 32
-36 c19 -20 65 -50 106 -69 50 -23 92 -52 130 -90 50 -50 61 -56 98 -56 41 0
99 23 152 61 62 44 144 34 249 -29 30 -18 65 -35 76 -38 31 -8 95 13 127 41
50 44 27 64 -25 20 -51 -43 -70 -42 -176 11 -130 66 -176 67 -278 6 -40 -24
-88 -45 -107 -49 -34 -5 -41 -1 -99 55 -43 41 -87 71 -133 92 -39 17 -80 41
-93 53 -27 25 -49 98 -56 187 -7 83 8 127 54 157 19 12 53 36 75 52 59 44 90
53 135 41 20 -5 49 -19 63 -30 35 -28 45 -25 17 5 -12 13 -42 32 -66 42 -62
25 -55 55 15 69 30 6 37 2 94 -59 34 -36 73 -70 86 -77 19 -10 22 -17 17 -42
-5 -26 0 -37 34 -74 21 -23 42 -55 45 -71 8 -39 37 -96 52 -100 17 -6 45 54
37 80 -3 12 -15 32 -26 44 -12 12 -21 32 -22 45 -1 16 -10 25 -34 32 -35 10
-68 56 -58 82 4 9 -4 18 -20 25 -15 5 -57 41 -94 79 -50 52 -73 70 -93 70 -18
0 -27 5 -27 16 0 20 -30 12 -90 -26 -25 -16 -71 -40 -102 -54 -69 -30 -132
-78 -159 -123 -27 -44 -34 -208 -9 -208 11 0 15 10 14 37 -1 23 4 39 12 42 10
4 14 -4 14 -29 0 -19 5 -57 11 -86 10 -46 9 -53 -8 -71 -49 -49 -152 -39 -190
18 -16 25 -16 27 0 39 24 17 13 86 -24 145 -20 32 -25 49 -18 61 7 13 2 26
-19 51 -15 18 -30 35 -34 36 -18 8 -6 22 20 22 36 0 97 31 97 50 0 9 -11 16
-30 18 -101 8 -112 12 -164 62 -47 44 -52 53 -46 79 6 27 3 32 -32 50 -106 53
-163 158 -163 295 0 189 96 316 285 377 55 18 83 20 163 17 53 -3 105 -9 116
-13 14 -6 18 -5 14 6 -12 37 -154 50 -266 24 -72 -17 -168 -63 -196 -94 -21
-23 -36 -19 -36 9 0 40 143 130 262 164 113 32 297 12 408 -44 48 -25 130 -98
141 -127 5 -12 13 -23 19 -23 13 0 13 16 0 41 -9 16 -7 19 9 19 35 0 113 -31
179 -71 63 -38 92 -48 92 -30 0 5 -7 12 -16 15 -36 14 4 26 87 26 72 0 89 -3
89 -15 0 -8 -7 -15 -15 -15 -8 0 -15 -4 -15 -9 0 -25 26 -19 85 19 100 65 216
103 201 65 -3 -8 -9 -22 -12 -30 -4 -10 0 -15 10 -15 9 0 16 5 16 10 0 19 83
101 128 127 24 14 83 39 130 55 l87 28 -56 -4 c-67 -5 -173 -51 -230 -99 -31
-27 -51 -35 -95 -40 -34 -3 -82 -19 -125 -40 -64 -32 -71 -34 -106 -22 -46 14
-172 12 -202 -5 -18 -9 -28 -8 -55 8 -51 30 -144 62 -180 62 -25 0 -47 11 -82
40 -52 43 -171 94 -257 111 -69 13 -206 12 -243 -1 -20 -8 -26 -8 -19 -1 6 6
51 20 99 30 48 11 91 22 94 26 3 3 1 15 -6 25 -11 19 -9 20 25 20 21 0 59 -7
85 -14 40 -13 48 -13 58 0 7 7 10 21 6 29 -7 20 -5 19 54 -9 68 -33 128 -43
136 -23 3 9 1 25 -5 36 -11 20 -11 20 36 -1 27 -11 53 -24 58 -28 6 -4 34 -15
63 -25 73 -24 80 -13 43 65 -17 35 -29 65 -26 68 11 11 73 -39 103 -83 45 -67
62 -70 62 -11 0 24 -5 57 -10 73 l-10 28 20 -27 c11 -14 30 -37 41 -50 19 -22
20 -22 32 -4 7 10 22 31 34 45 l23 26 -7 -50 c-10 -76 -9 -79 10 -83 12 -2 22
7 32 31 22 52 126 135 125 100 0 -5 -14 -30 -30 -58 -16 -27 -30 -58 -30 -68
0 -16 5 -17 33 -12 17 4 52 16 77 27 83 37 115 51 123 56 5 2 3 -5 -4 -16 -14
-23 -6 -52 15 -52 9 0 45 11 82 25 l66 25 17 -21 c15 -18 23 -20 59 -14 29 5
48 15 60 32 9 14 30 39 46 54 19 20 29 40 30 66 1 21 6 50 10 66 5 15 4 27 -1
27 -22 0 -142 -58 -135 -65 4 -4 -4 -5 -18 -2 -14 4 -31 7 -39 7 -10 0 -12 9
-7 35 4 19 4 52 0 73 l-8 37 -8 -44 c-16 -92 -60 -94 -51 -3 l5 57 -49 -47
c-67 -66 -80 -64 -75 12 5 71 -5 76 -49 25 -37 -42 -59 -45 -59 -8 l0 27 -34
-33 c-33 -32 -56 -35 -56 -5 0 20 -7 18 -61 -20 -65 -48 -77 -33 -43 53 14 35
23 66 19 69 -4 4 -31 -19 -61 -50 l-55 -57 -55 55 c-30 29 -59 54 -63 54 -9 0
10 -64 22 -76 11 -11 8 -74 -3 -74 -6 0 -29 14 -52 30 -45 33 -60 38 -52 15
11 -28 -25 -28 -54 0 l-27 27 -5 -23 c-9 -37 -25 -33 -65 17 -45 54 -56 46
-49 -33 7 -68 -10 -70 -68 -8 -23 25 -46 45 -51 45 -4 0 -5 -20 -1 -45 3 -25
3 -52 0 -61 -6 -15 -8 -15 -26 1 -13 12 -20 31 -20 57 0 25 -4 37 -11 33 -6
-4 -9 -33 -8 -68 2 -51 0 -63 -14 -65 -19 -4 -145 37 -153 49 -3 5 -11 9 -19
9 -10 0 -13 -17 -12 -67 l2 -68 -50 3 c-27 2 -51 8 -53 13 -8 22 -42 5 -106
-52 -44 -39 -72 -57 -78 -51 -12 12 14 55 57 94 42 38 17 35 -35 -4 -23 -18
-54 -41 -68 -50 -14 -9 -44 -45 -68 -79 -45 -65 -49 -64 -57 7 -6 50 6 76 21
48 9 -17 16 -13 69 42 32 34 107 98 166 144 77 59 105 86 98 93 -6 6 -11 15
-11 20 0 14 124 67 186 78 32 6 69 13 82 15 36 7 26 39 -28 90 -27 26 -50 52
-50 57 0 12 127 1 195 -17 61 -16 104 -35 173 -76 47 -27 53 -29 59 -13 4 10
-9 61 -30 121 -20 57 -34 108 -31 113 13 22 217 -145 295 -242 l46 -57 44 55
c54 68 127 136 213 197 100 71 104 65 51 -74 -19 -50 -35 -98 -35 -106 0 -22
36 -17 78 11 20 13 65 36 98 49 67 27 220 54 248 43 16 -6 12 -13 -28 -48 -86
-76 -83 -103 12 -111 32 -3 93 -20 135 -38 76 -32 102 -50 79 -58 -24 -8 -11
-31 34 -61 l46 -30 67 34 c36 18 80 37 96 41 17 4 35 10 40 14 6 3 44 8 85 9
41 2 77 5 79 7 3 3 -5 12 -18 20 -12 9 -20 21 -18 27 2 7 -2 26 -9 44 -12 27
-12 34 0 46 12 12 12 20 -5 56 -10 23 -28 56 -40 72 -27 39 -14 56 26 35 37
-19 49 -11 29 20 -20 29 -11 43 16 26 11 -7 29 -12 40 -12 22 0 31 -17 49 -95
7 -32 20 -55 34 -65 12 -8 41 -33 65 -55 63 -58 45 -82 -73 -98 -25 -3 -23 -4
10 -5 22 -1 65 5 95 14 30 9 82 22 115 30 94 23 155 51 155 73 0 22 -30 65
-63 91 l-28 22 -79 -20 c-79 -19 -95 -17 -64 9 8 7 24 30 35 51 l19 38 -26 40
c-30 45 -32 46 -60 25 -10 -8 -38 -15 -61 -15 -49 0 -64 16 -83 90 -22 83 -82
134 -187 160 -47 12 -103 67 -103 103 0 34 -10 42 -80 72 -69 30 -165 42 -190
26 -18 -12 -15 -17 68 -131 77 -108 74 -110 -61 -46 -57 27 -115 47 -150 51
-34 4 -56 12 -54 18 2 6 25 26 51 44 46 32 47 33 20 33 -24 0 -132 -34 -205
-65 -36 -14 -30 35 8 73 20 20 10 25 -20 11 -36 -16 -61 -6 -47 21 6 11 18 20
28 20 9 0 24 5 32 11 11 7 -20 8 -105 4 -129 -7 -167 -19 -260 -81 -27 -19
-55 -34 -62 -34 -15 0 -16 43 -4 108 10 52 1 54 -23 5 l-18 -37 -15 32 c-19
39 -26 40 -43 7 -17 -32 -26 -32 -45 5 -9 17 -18 30 -20 30 -3 0 -2 -34 2 -75
4 -52 3 -75 -5 -75 -6 0 -42 19 -79 43 -94 60 -112 65 -243 72 l-115 6 35 -18
c40 -20 46 -46 13 -51 -13 -2 -23 1 -23 6 0 5 -9 12 -20 15 -26 7 -25 1 5 -35
14 -16 25 -39 25 -50 0 -23 -3 -23 -100 17 -69 30 -140 44 -140 28 0 -5 18
-19 40 -32 52 -29 53 -51 1 -51 -36 0 -122 -33 -213 -80 -36 -19 -68 -26 -68
-14 0 9 60 95 102 146 40 48 42 68 9 68 -10 0 -24 7 -31 15 -10 12 -1 20 59
49 39 19 79 37 89 39 10 3 7 5 -8 5 -14 0 -47 -8 -75 -18z m623 -196 c109 -53
158 -93 179 -146 17 -43 27 -41 48 8 8 19 29 47 46 62 92 79 309 163 309 120
0 -7 -13 -40 -30 -73 -40 -80 -33 -86 85 -74 62 6 114 6 168 -2 84 -12 102
-26 72 -59 -9 -10 -15 -26 -13 -36 3 -15 198 -158 205 -150 9 9 -13 37 -57 70
-66 51 -65 65 4 61 78 -4 134 -34 222 -116 63 -60 74 -68 58 -40 -10 19 -38
55 -61 80 -45 46 -52 61 -30 61 21 0 64 -43 109 -110 42 -62 98 -170 98 -190
0 -5 5 -21 12 -37 26 -64 9 -88 -48 -68 -76 27 -111 13 -56 -22 40 -26 66 -52
59 -59 -3 -3 -40 11 -82 32 -43 20 -116 51 -164 69 -104 38 -113 57 -51 100
22 15 40 30 40 32 0 2 -32 3 -70 2 -78 -2 -90 2 -69 27 11 14 27 16 94 12 72
-5 77 -4 50 7 -44 19 -245 45 -346 45 -101 0 -99 -2 -99 97 l0 65 -46 -26
c-26 -14 -52 -26 -60 -26 -24 0 -26 20 -2 40 13 11 21 19 18 20 -12 0 -123
-45 -209 -86 -51 -25 -100 -43 -107 -40 -8 3 -27 26 -42 50 -25 42 -52 60 -52
36 0 -20 -50 -90 -65 -90 -8 0 -54 19 -102 43 -76 37 -136 64 -193 85 -12 4
-11 1 3 -15 40 -46 12 -56 -54 -18 -24 14 -47 25 -50 25 -3 0 -4 -22 -1 -50 2
-27 -1 -63 -7 -79 l-12 -28 -127 -6 c-124 -5 -299 -30 -314 -45 -4 -4 29 -8
74 -7 71 0 83 -2 86 -17 3 -16 -5 -18 -67 -18 -67 0 -93 -12 -53 -24 11 -4 30
-18 43 -32 l24 -26 -23 -18 c-12 -10 -53 -28 -90 -41 -37 -12 -102 -39 -145
-61 -100 -49 -131 -47 -59 5 63 45 68 63 15 52 -21 -4 -51 -8 -68 -9 -28 -1
-30 1 -27 29 12 116 165 375 223 375 29 0 24 -10 -36 -74 -30 -32 -55 -65 -55
-74 0 -12 13 -3 38 25 59 66 166 131 228 139 86 10 93 -4 28 -56 -31 -24 -60
-53 -66 -63 -12 -23 -13 -23 82 38 36 23 78 50 93 59 39 24 42 40 17 76 -13
18 -19 35 -14 40 18 18 168 30 259 21 50 -5 93 -7 98 -4 13 8 7 33 -23 92 -16
32 -26 62 -22 66 15 14 90 -7 180 -51z m662 -18 c-14 -14 -24 0 -16 21 6 15 8
15 16 3 6 -9 5 -19 0 -24z m-2033 -429 c-3 -7 7 -24 21 -39 l25 -27 -31 -33
c-18 -17 -32 -38 -32 -45 0 -23 -49 -27 -78 -6 -41 30 -50 52 -28 65 10 5 25
19 35 31 47 60 102 93 88 54z m-322 -402 c38 -30 37 -49 -4 -105 -35 -48 -41
-51 -81 -44 -54 10 -57 19 -22 69 18 25 32 49 32 53 0 10 30 52 36 52 3 0 20
-11 39 -25z m1426 -17 c0 -10 2 -10 6 0 6 16 30 15 36 -2 4 -9 -3 -16 -16 -20
-21 -5 -47 9 -47 25 0 14 20 10 21 -3z m122 -68 c3 -11 2 -20 -3 -20 -12 0
-31 26 -23 33 11 12 21 7 26 -13z m-935 -259 c24 -21 28 -31 10 -31 -14 0 -48
30 -48 42 0 13 13 9 38 -11z m-38 -57 c0 -8 -4 -12 -10 -9 -5 3 -10 10 -10 16
0 5 5 9 10 9 6 0 10 -7 10 -16z m-835 -54 c3 -5 18 -10 33 -10 54 0 57 -12 23
-84 -17 -36 -31 -70 -31 -75 0 -5 -6 -14 -14 -20 -10 -8 -16 -8 -25 3 -6 7
-25 16 -42 20 -30 6 -31 7 -24 48 4 23 11 49 15 58 4 8 13 27 19 43 11 27 34
36 46 17z m640 -40 c-3 -5 -13 -10 -21 -10 -8 0 -14 5 -14 10 0 6 9 10 21 10
11 0 17 -4 14 -10z m207 -295 c4 -22 10 -74 12 -116 3 -42 8 -92 11 -113 6
-30 5 -35 -8 -30 -11 4 -22 -7 -38 -38 -18 -36 -47 -132 -49 -160 0 -18 20 -6
37 22 21 36 38 39 29 5 -9 -35 5 -166 17 -162 6 2 16 24 24 50 7 25 17 48 22
51 4 3 11 -33 14 -79 5 -65 13 -100 37 -151 18 -40 34 -64 40 -58 5 5 10 36
12 69 l3 60 22 -66 c40 -120 87 -176 95 -111 3 24 7 20 42 -43 23 -41 68 -98
108 -137 83 -81 85 -97 22 -158 -54 -53 -97 -133 -120 -224 -9 -36 -21 -66
-26 -66 -5 0 -34 25 -63 55 -64 65 -93 134 -102 241 -7 85 -18 85 -34 -2 -7
-32 -14 -66 -17 -74 -7 -20 -30 55 -31 100 -1 19 -5 41 -10 49 -12 18 -24 -5
-41 -77 -6 -28 -15 -54 -20 -57 -4 -2 -10 26 -14 63 -3 37 -15 91 -26 120 -11
29 -20 63 -20 77 0 14 -4 25 -9 25 -8 0 -23 -49 -36 -118 -4 -18 -10 -30 -14
-28 -17 11 -34 117 -29 180 6 64 -4 89 -16 43 -6 -26 -71 -105 -79 -97 -3 3 7
25 24 49 18 28 29 57 29 80 1 83 8 187 15 204 5 11 3 17 -7 17 -18 0 -39 -23
-67 -75 l-22 -40 6 83 c5 72 22 136 60 225 12 28 -11 20 -60 -23 -54 -47 -71
-51 -52 -12 8 15 26 65 40 112 32 103 91 205 134 234 18 12 33 24 33 27 0 4
-29 6 -65 5 -36 0 -65 2 -65 6 0 3 20 24 45 46 50 44 98 61 160 59 38 -2 40
-4 47 -42z m-854 -137 c-4 -27 -28 -36 -28 -10 0 20 8 32 22 32 5 0 8 -10 6
-22z m-70 -41 c10 -8 12 -28 7 -81 -4 -39 -12 -74 -17 -77 -10 -6 -61 9 -87
25 -10 6 -12 23 -7 68 10 87 12 90 55 82 20 -4 42 -11 49 -17z m-119 -197 c12
-53 7 -61 -20 -33 -17 16 -19 27 -13 57 8 45 19 37 33 -24z m1928 -155 c-4 -8
-11 -15 -17 -15 -14 0 -13 27 3 33 16 6 21 1 14 -18z m-1810 -167 c6 -7 13
-41 16 -76 5 -59 4 -64 -18 -74 -35 -16 -71 -3 -85 31 -6 17 -9 34 -6 40 4 5
2 12 -4 16 -14 9 -12 62 3 68 24 10 85 7 94 -5z m90 -466 c6 -4 14 -25 18 -47
4 -22 13 -50 21 -62 21 -33 17 -52 -13 -65 -16 -7 -35 -18 -44 -25 -21 -18
-29 -7 -60 79 -19 56 -21 69 -10 82 7 9 21 16 31 16 10 0 20 7 24 15 6 17 15
19 33 7z m-14 -266 c7 -16 -1 -26 -20 -26 -7 0 -13 9 -13 20 0 23 25 27 33 6z
m1087 -110 c0 -3 -4 -8 -10 -11 -5 -3 -10 -1 -10 4 0 6 5 11 10 11 6 0 10 -2
10 -4z m99 -153 c25 -47 67 -115 94 -150 27 -36 47 -66 45 -67 -13 -11 -237
-116 -246 -116 -21 0 -19 199 4 298 14 64 39 122 52 122 4 0 27 -39 51 -87z
m1321 27 c0 -5 -11 -10 -25 -10 -14 0 -25 5 -25 10 0 6 11 10 25 10 14 0 25
-4 25 -10z m-1930 -82 c71 -71 100 -113 100 -145 0 -26 15 -31 24 -7 3 9 15
14 28 12 18 -2 24 -11 28 -38 3 -19 11 -35 18 -36 6 -1 17 -2 23 -2 7 -2 9
-19 4 -54 l-7 -53 26 24 c41 38 56 17 56 -83 0 -44 5 -97 10 -116 5 -19 15
-57 23 -85 8 -27 17 -65 21 -84 5 -29 4 -32 -9 -21 -44 36 -95 174 -95 257 0
24 -4 43 -8 43 -11 0 -35 -59 -42 -105 l-6 -40 -19 40 c-11 25 -19 68 -21 115
-3 92 -2 89 -18 67 -12 -15 -13 -12 -9 26 6 46 -9 69 -30 48 -19 -19 -24 -12
-29 37 -6 57 -40 129 -88 186 -55 64 -63 76 -52 76 5 0 38 -28 72 -62z m1952
34 c27 -15 48 -57 48 -92 0 -16 -7 -16 -82 5 -46 13 -94 25 -108 27 -17 2 -26
10 -28 27 -5 30 8 42 55 51 45 8 78 3 115 -18z m-214 -14 c25 -25 13 -38 -30
-37 -24 1 -56 5 -73 8 -30 8 -30 8 15 20 25 7 50 14 55 16 17 6 21 5 33 -7z
m102 -81 c25 -9 72 -22 105 -30 86 -22 152 -54 172 -83 10 -14 32 -42 50 -63
24 -28 30 -43 26 -64 -3 -15 -12 -27 -19 -27 -8 0 -14 -9 -14 -19 0 -11 -5
-21 -11 -23 -5 -2 -13 -22 -16 -46 -3 -23 -9 -42 -13 -42 -8 0 -32 25 -59 60
-26 33 -36 21 -50 -59 -15 -91 -30 -102 -60 -46 -32 61 -55 60 -76 -5 -17 -50
-35 -74 -35 -46 0 18 -65 132 -93 164 -38 41 -47 29 -41 -52 4 -40 4 -86 0
-100 l-7 -27 -34 45 c-19 25 -43 63 -55 85 -11 23 -25 41 -30 41 -5 0 -19 -19
-31 -42 -35 -68 -98 -152 -103 -137 -13 41 -14 84 -5 135 6 31 8 58 5 62 -16
15 -107 -113 -121 -171 -10 -39 -27 -29 -47 29 -21 65 -42 68 -70 10 -12 -25
-25 -46 -30 -46 -14 0 -41 64 -47 114 -3 27 -11 51 -17 53 -16 5 -42 -65 -50
-132 -6 -46 -9 -53 -21 -43 -23 19 -35 49 -42 101 -3 28 -11 52 -18 54 -13 5
-43 -57 -43 -91 -1 -21 -1 -21 -16 -1 -11 14 -14 36 -12 78 3 41 1 57 -8 57
-15 0 -53 -48 -82 -102 -23 -45 -32 -40 -32 19 0 24 -4 43 -8 43 -16 0 -53
-89 -59 -139 -3 -28 -8 -51 -10 -51 -3 0 -30 22 -61 49 -31 26 -89 65 -128 85
-77 40 -119 91 -99 121 6 9 57 35 115 59 58 24 130 54 160 69 77 36 159 62
318 102 263 67 333 75 567 71 151 -3 223 -9 255 -19z m-947 -18 l142 0 -123
-36 -123 -36 -35 34 c-36 35 -44 55 -18 45 9 -3 79 -6 157 -7z m1162 1 c3 -5
1 -10 -4 -10 -6 0 -11 5 -11 10 0 6 2 10 4 10 3 0 8 -4 11 -10z m-1585 -544
c0 -3 -4 -8 -10 -11 -5 -3 -10 -1 -10 4 0 6 5 11 10 11 6 0 10 -2 10 -4z
m-100 -126 c0 -5 -4 -10 -10 -10 -5 0 -10 5 -10 10 0 6 5 10 10 10 6 0 10 -4
10 -10z"></path>
<path d="M2126 3455 c-29 -73 -58 -220 -51 -262 2 -16 7 -45 10 -65 8 -50 20
-48 38 5 l14 42 6 -35 c22 -138 30 -175 44 -205 21 -44 33 -45 34 -2 1 17 4
43 8 57 6 21 10 14 29 -45 22 -67 85 -175 103 -175 9 0 16 23 22 70 2 23 5 21
26 -20 18 -34 85 -141 118 -189 2 -2 6 -2 9 1 6 6 -18 53 -68 133 -17 28 -39
75 -48 105 -26 81 -43 77 -67 -20 l-9 -34 -38 77 c-29 59 -39 92 -41 140 -5
82 -26 89 -51 15 l-17 -53 -14 40 c-8 23 -13 74 -13 120 1 44 1 86 1 93 -2 22
-21 13 -39 -18 -25 -44 -33 -37 -27 26 7 70 23 136 47 192 20 48 23 72 9 72
-5 0 -21 -29 -35 -65z"></path>
<path d="M3260 1879 c-220 -19 -390 -59 -563 -132 -103 -43 -177 -96 -177
-126 0 -22 19 -41 42 -41 14 0 18 8 18 32 0 17 3 29 6 26 3 -3 24 12 47 33 46
43 143 87 270 123 169 49 234 58 465 63 122 3 222 9 222 13 0 20 -157 24 -330
9z"></path>
<path d="M3695 1850 c3 -5 8 -10 11 -10 2 0 4 5 4 10 0 6 -5 10 -11 10 -5 0
-7 -4 -4 -10z"></path>
<path d="M5437 4598 c-15 -12 -11 -20 38 -80 30 -37 56 -77 58 -90 2 -20 -4
-24 -45 -32 -61 -12 -66 -9 -120 92 -10 21 -9 26 9 40 30 24 40 62 16 62 -10
0 -28 -7 -40 -15 -12 -8 -37 -14 -55 -13 -30 3 -33 1 -29 -22 3 -25 116 -205
154 -247 13 -15 32 -23 53 -23 18 0 40 -7 48 -16 23 -22 30 -62 15 -80 -22
-27 -12 -117 27 -231 39 -114 58 -144 105 -163 37 -16 37 -42 2 -92 l-26 -39
12 -102 c25 -209 36 -240 86 -234 18 2 20 -4 19 -57 -1 -34 -7 -61 -14 -66 -9
-5 -9 -9 -1 -14 18 -12 12 -41 -13 -65 -28 -26 -41 -15 -26 25 14 35 6 42 -13
12 -9 -12 -18 -50 -22 -83 -3 -33 -10 -94 -16 -136 -9 -65 -9 -81 5 -108 9
-17 23 -31 31 -31 7 0 16 -4 19 -9 10 -15 -15 -71 -32 -71 -8 0 -30 -11 -48
-25 -36 -28 -54 -74 -54 -142 0 -33 -5 -46 -26 -62 -34 -27 -46 -121 -20 -150
23 -25 23 -50 2 -83 -13 -20 -27 -28 -47 -28 -16 0 -29 -5 -29 -11 0 -7 -12
-10 -30 -7 -22 3 -30 0 -30 -10 0 -8 -10 -23 -22 -34 -32 -28 -44 -9 -28 46
12 44 19 50 47 47 19 -2 40 37 58 109 13 50 16 91 12 179 l-5 113 23 -5 c24
-4 24 -4 9 32 -9 20 -19 45 -24 57 -5 12 -22 44 -39 71 -35 57 -40 93 -13 93
10 0 25 -9 35 -20 18 -21 71 -28 82 -10 3 5 -20 35 -53 65 -46 42 -66 70 -90
127 l-31 73 5 -80 c3 -44 6 -97 8 -117 5 -48 -8 -49 -30 -3 -9 19 -19 35 -21
35 -6 0 -4 -9 21 -105 8 -33 15 -66 16 -72 0 -28 -20 -10 -50 43 -21 38 -35
53 -42 46 -6 -6 -7 -16 0 -28 17 -33 44 -185 45 -258 2 -71 -19 -196 -33 -196
-4 0 -15 29 -25 65 -21 78 -45 89 -45 22 0 -72 -50 -198 -104 -262 l-25 -30
-1 65 c0 80 -10 140 -21 140 -5 0 -6 -31 -3 -68 8 -83 -5 -114 -69 -163 -25
-19 -55 -49 -67 -67 -25 -35 -42 -42 -39 -15 3 38 0 40 -58 35 -32 -2 -64 -9
-71 -15 -13 -10 -52 -84 -52 -98 0 -11 153 -82 213 -99 26 -8 47 -18 47 -22 0
-17 29 -7 35 12 8 25 164 185 172 176 3 -3 -17 -31 -44 -63 -48 -56 -73 -95
-93 -148 -9 -22 -4 -31 45 -79 54 -54 125 -183 125 -226 0 -29 12 -25 59 23
51 50 96 132 92 168 -3 30 10 41 65 57 42 12 57 27 97 94 12 20 39 63 59 96
39 62 44 86 33 167 -9 65 6 103 42 110 72 16 95 47 143 192 38 112 39 170 5
207 -19 20 -24 34 -19 49 4 12 7 22 8 22 0 0 18 8 39 18 50 22 61 53 77 198
16 144 10 179 -35 214 -31 23 -35 32 -35 70 0 38 4 46 30 61 49 29 54 57 40
202 -14 148 -39 208 -88 214 -36 4 -42 45 -13 92 22 35 30 139 12 150 -5 3
-12 18 -16 33 -15 62 -59 160 -84 186 -18 20 -32 26 -47 23 -16 -4 -29 2 -48
25 -28 32 -33 67 -15 100 26 49 10 100 -64 217 -42 64 -65 76 -100 50z m271
-532 c5 -6 15 -29 22 -51 7 -22 17 -46 22 -52 18 -23 1 -43 -36 -43 -19 0 -36
-6 -39 -12 -15 -41 -75 61 -76 129 -1 28 3 34 32 41 36 10 62 6 75 -12z m126
-493 c5 -28 9 -92 7 -125 -1 -13 -9 -18 -30 -18 -16 0 -31 -6 -35 -15 -3 -8
-14 -15 -25 -15 -16 0 -20 10 -26 80 -9 96 5 117 77 119 21 1 27 -4 32 -26z
m54 -181 c2 -15 -2 -22 -12 -22 -11 0 -16 9 -16 26 0 31 23 28 28 -4z m-44
-400 c-4 -42 -10 -81 -15 -86 -14 -16 -98 -16 -107 0 -7 13 1 115 12 149 2 6
29 11 60 12 l56 1 -6 -76z m-399 -72 c3 -5 1 -10 -4 -10 -6 0 -11 5 -11 10 0
6 2 10 4 10 3 0 8 -4 11 -10z m423 -72 c2 -8 -6 -26 -17 -39 -18 -22 -20 -23
-27 -6 -8 23 12 70 29 64 6 -2 13 -10 15 -19z m-155 -279 c28 -7 37 -15 33
-25 -3 -8 -13 -39 -22 -69 -18 -64 -34 -76 -80 -62 -40 12 -48 29 -34 76 31
99 32 100 103 80z m-293 -147 c0 -15 -2 -15 -10 -2 -13 20 -13 33 0 25 6 -3
10 -14 10 -23z m17 -4 c-3 -8 -6 -5 -6 6 -1 11 2 17 5 13 3 -3 4 -12 1 -19z
m61 -346 c13 -2 26 -11 29 -18 7 -20 -65 -114 -88 -114 -25 0 -53 44 -45 73 9
39 46 79 65 71 9 -3 26 -9 39 -12z m-208 -17 c0 -17 -31 -75 -39 -75 -6 0 -11
-9 -11 -19 0 -20 -17 -31 -37 -24 -18 6 -16 30 2 37 8 3 15 13 15 23 0 20 38
63 57 63 7 0 13 -2 13 -5z"></path>
<path d="M4426 4414 c-24 -24 -20 -38 24 -78 42 -38 70 -45 89 -22 9 10 0 24
-39 65 -27 28 -51 51 -54 51 -3 0 -12 -7 -20 -16z"></path>
<path d="M4934 4363 c-54 -129 -15 -230 116 -298 19 -9 51 -26 71 -36 19 -10
41 -25 49 -33 18 -23 30 -19 30 10 0 53 -46 109 -103 125 l-39 10 7 42 c4 23
13 49 21 57 35 37 119 -85 135 -197 10 -71 24 -98 35 -70 11 30 -6 123 -35
183 -31 67 -90 124 -126 124 -30 0 -55 -34 -55 -76 0 -45 -9 -64 -31 -64 -23
0 -23 7 -3 55 8 20 14 51 12 69 -3 27 -7 31 -31 31 l-28 -1 7 53 c8 64 -8 71
-32 16z"></path>
<path d="M4530 4183 c0 -5 12 -15 27 -22 48 -22 120 -80 126 -101 8 -31 -10
-34 -45 -7 -108 81 -310 121 -417 84 -40 -14 -59 -45 -20 -32 43 14 185 17
241 6 125 -26 233 -103 283 -200 41 -82 53 -207 28 -294 -4 -16 -2 -17 15 -8
23 12 31 30 38 85 10 85 18 101 55 106 l34 5 -2 61 c-2 81 -39 160 -99 213
-59 52 -264 132 -264 104z"></path>
<path d="M2493 3931 c-67 -23 -118 -63 -143 -111 -21 -41 -27 -120 -10 -120 6
0 10 14 10 30 0 106 112 192 248 192 37 0 80 -5 95 -11 34 -13 47 -14 47 -2 0
15 -91 41 -144 41 -28 -1 -74 -9 -103 -19z"></path>
<path d="M4326 3937 c-22 -7 -41 -18 -44 -26 -4 -11 0 -12 14 -6 11 4 55 10
99 12 68 4 89 2 140 -19 76 -31 121 -86 131 -158 7 -55 24 -58 24 -4 0 51 -42
126 -87 155 -82 55 -189 72 -277 46z"></path>
<path d="M3360 3886 c0 -3 11 -26 25 -52 25 -46 32 -103 18 -152 -7 -30 -23
-10 -23 31 0 35 -40 98 -83 131 -34 26 -77 35 -77 16 0 -5 7 -10 15 -10 20 0
93 -67 111 -101 8 -16 14 -47 14 -69 0 -53 -42 -100 -89 -100 -33 0 -42 14
-16 24 9 3 23 22 31 41 12 30 12 40 2 62 -15 31 -46 47 -33 17 21 -49 17 -70
-15 -97 -36 -31 -98 -36 -162 -13 -45 16 -147 81 -238 150 -35 27 -91 63 -125
80 -109 56 -253 37 -314 -40 -25 -32 -28 -84 -6 -84 9 0 15 9 15 23 0 12 9 33
19 47 l19 24 0 -45 c-2 -94 48 -162 146 -203 54 -22 159 -30 235 -17 36 6 67
9 69 6 10 -10 -62 -34 -130 -44 -114 -16 -181 -1 -262 57 -35 26 -56 51 -74
90 -15 34 -28 50 -34 44 -31 -31 54 -145 143 -190 88 -45 158 -51 267 -23 99
26 95 26 80 0 -7 -11 -45 -36 -85 -55 -63 -30 -82 -34 -150 -34 -62 0 -89 5
-133 26 -65 30 -124 83 -152 139 -12 22 -23 34 -25 28 -8 -23 42 -105 90 -149
88 -79 213 -99 352 -56 67 20 93 34 250 133 l70 44 107 0 c67 0 111 4 118 12
9 8 21 5 47 -13 32 -21 47 -24 130 -24 89 0 129 9 145 34 5 7 18 7 43 -3 25
-9 58 -11 109 -6 86 8 125 -5 240 -84 125 -85 241 -125 327 -112 87 14 79 26
-22 31 -67 4 -100 10 -111 20 -8 9 -33 22 -56 29 -24 8 -44 23 -51 37 -6 13
-10 24 -8 24 1 0 36 -9 77 -20 41 -11 94 -20 116 -20 70 0 166 35 218 81 46
41 86 103 86 134 0 25 -17 17 -28 -13 -14 -40 -67 -98 -116 -127 -76 -45 -211
-50 -325 -14 -59 19 -63 32 -6 23 82 -15 205 -10 261 9 62 21 132 79 150 124
8 18 14 51 14 74 0 35 2 40 14 30 8 -7 18 -26 21 -42 7 -32 22 -38 32 -13 9
24 -22 75 -60 100 -120 78 -236 53 -437 -96 -169 -126 -276 -164 -350 -127
-36 18 -53 59 -39 91 15 32 4 46 -16 20 -22 -29 -18 -69 10 -102 31 -37 31
-42 1 -42 -35 0 -84 45 -91 84 -12 62 35 140 108 177 43 23 46 29 12 29 -26 0
-82 -44 -116 -91 -11 -16 -24 -51 -28 -77 l-8 -47 -12 30 c-16 38 -6 109 20
151 36 59 19 57 -40 -4 -60 -63 -80 -109 -65 -155 8 -28 63 -76 87 -77 10 0
16 -4 13 -9 -10 -15 -65 -21 -90 -10 -18 8 -33 8 -56 1 -33 -12 -90 -6 -90 9
0 5 8 9 18 9 23 1 70 43 82 76 18 46 -2 92 -72 164 -45 46 -58 57 -58 46z
m-681 -56 c7 -4 -8 -9 -37 -13 -64 -7 -122 -37 -144 -74 l-17 -28 0 40 c0 71
38 97 129 88 30 -3 61 -9 69 -13z m1833 -10 c16 -17 36 -90 25 -90 -3 0 -20
15 -39 34 -34 34 -89 56 -142 56 -46 0 -21 14 37 21 64 7 97 1 119 -21z
m-1882 -50 c-30 -56 -1 -134 63 -166 66 -34 177 11 177 72 0 13 4 25 8 28 12
7 125 -75 115 -84 -4 -4 -43 -17 -87 -30 -94 -27 -209 -29 -289 -6 -62 18
-117 70 -117 111 0 34 38 73 85 89 46 16 59 12 45 -14z m92 24 c3 -3 -5 -16
-18 -29 -28 -28 -30 -52 -8 -83 32 -46 122 -11 111 44 -6 31 4 37 31 18 53
-37 8 -125 -70 -139 -98 -18 -176 94 -117 169 19 24 57 35 71 20z m1638 -14
c14 -14 20 -33 20 -65 0 -60 -38 -104 -95 -111 -80 -10 -151 58 -122 117 18
35 47 38 47 3 0 -58 68 -86 110 -44 27 27 25 56 -4 85 -13 13 -21 26 -18 29
12 12 43 5 62 -14z m123 -28 c20 -19 27 -35 27 -62 0 -111 -226 -159 -426 -91
-32 11 -60 23 -61 28 -2 6 79 67 108 81 3 1 11 -16 18 -38 19 -64 91 -95 165
-70 57 18 78 54 76 125 -1 33 -2 63 -1 67 2 13 66 -14 94 -40z m-175 1 c5 -17
-26 -29 -40 -15 -6 6 -7 15 -3 22 9 14 37 9 43 -7z m-1515 -29 c-3 -8 -12 -14
-19 -14 -20 0 -30 30 -13 40 17 11 40 -7 32 -26z m1517 -24 c0 -5 -4 -10 -10
-10 -5 0 -10 5 -10 10 0 6 5 10 10 10 6 0 10 -4 10 -10z m-1550 -20 c0 -5 -2
-10 -4 -10 -3 0 -8 5 -11 10 -3 6 -1 10 4 10 6 0 11 -4 11 -10z"></path>
<path d="M5104 3619 c-59 -27 -70 -43 -50 -74 17 -26 97 -258 91 -264 -3 -2
-27 16 -55 39 -28 23 -53 40 -55 38 -3 -3 6 -36 20 -75 22 -64 45 -172 45
-215 0 -26 -17 -22 -26 5 -10 33 -43 77 -58 77 -10 0 -12 -24 -9 -102 5 -138
9 -160 39 -203 14 -21 23 -39 20 -42 -7 -7 -46 39 -67 80 -11 20 -22 37 -24
37 -3 0 -4 -33 -3 -72 2 -89 -9 -153 -28 -169 -12 -9 -14 -6 -14 17 -1 34 -22
120 -33 130 -4 4 -7 -3 -7 -15 0 -12 -10 -52 -22 -88 -19 -54 -20 -67 -9 -71
8 -2 28 -18 45 -34 84 -78 76 -72 76 -51 0 11 3 23 7 26 10 11 33 -14 33 -37
0 -34 18 1 26 50 10 67 18 72 52 36 36 -38 58 -43 47 -9 -24 71 -12 204 17
199 24 -4 42 119 35 235 l-5 93 24 -6 c19 -5 23 -3 18 9 -10 26 4 39 28 26 19
-10 19 -8 -5 38 -15 26 -45 103 -67 171 -40 118 -45 159 -14 118 7 -11 16 -17
19 -14 8 8 -5 38 -17 38 -5 0 -6 4 -3 10 3 5 -1 21 -10 34 -22 34 -11 50 31
43 19 -3 34 -2 34 4 0 16 -83 8 -126 -12z"></path>
<path d="M4645 3559 c-18 -38 -84 -102 -134 -128 -28 -16 -14 -36 18 -26 55
17 185 195 143 195 -5 0 -17 -18 -27 -41z"></path>
<path d="M1729 3558 c-55 -43 -84 -82 -75 -104 5 -14 16 -7 59 37 29 30 61 59
71 65 12 6 16 15 12 22 -11 18 -21 15 -67 -20z"></path>
<path d="M5224 3579 c-6 -11 61 -78 79 -79 20 -1 3 42 -26 64 -38 29 -43 31
-53 15z"></path>
<path d="M3093 3475 c-17 -8 -62 -34 -100 -58 -91 -59 -150 -84 -245 -103 -76
-15 -109 -15 -185 1 -55 12 -38 -13 20 -30 113 -33 309 21 452 123 42 30 59
36 102 36 46 1 57 -3 84 -31 19 -18 41 -57 53 -95 13 -39 27 -63 34 -60 30 10
-11 123 -63 175 -32 31 -27 34 18 11 37 -20 68 -56 83 -98 14 -40 34 -46 34
-9 0 40 -32 88 -81 120 -33 22 -55 28 -108 30 -41 2 -78 -3 -98 -12z"></path>
<path d="M3732 3464 c-55 -27 -88 -69 -94 -118 -4 -38 19 -46 28 -9 11 42 34
72 76 99 51 33 54 30 18 -14 -33 -42 -74 -138 -65 -153 12 -18 35 -9 35 14 0
39 50 128 84 148 52 32 94 25 178 -30 88 -58 139 -81 182 -81 27 0 21 5 -44
39 -41 21 -111 59 -155 85 -69 40 -87 46 -135 46 -40 0 -71 -7 -108 -26z"></path>
<path d="M5337 3483 c-4 -3 -7 -12 -7 -20 0 -11 4 -11 20 -3 11 6 18 15 15 21
-7 11 -19 12 -28 2z"></path>
<path d="M3390 3466 c0 -2 12 -29 26 -61 23 -50 26 -67 22 -131 -4 -55 -2 -74
8 -74 38 0 34 155 -6 223 -17 29 -50 57 -50 43z"></path>
<path d="M3598 3453 c-48 -55 -75 -198 -44 -237 18 -23 40 -12 26 13 -22 42
-3 135 48 234 7 14 -15 7 -30 -10z"></path>
<path d="M1702 3431 c-53 -39 -57 -47 -33 -72 l19 -21 16 30 c9 17 29 40 46
52 16 12 30 26 30 31 0 18 -38 8 -78 -20z"></path>
<path d="M5230 3454 c0 -4 20 -24 45 -46 25 -22 45 -46 45 -53 0 -8 5 -17 10
-20 15 -9 50 4 50 19 0 30 -92 106 -129 106 -12 0 -21 -3 -21 -6z"></path>
<path d="M4909 3340 c-1 -8 -1 -46 0 -85 l2 -70 -23 38 c-37 63 -48 50 -48
-62 0 -99 -7 -161 -19 -161 -3 0 -13 21 -21 48 -16 49 -47 67 -43 25 4 -40
-33 -168 -63 -213 l-28 -45 -9 45 c-13 65 -15 70 -30 70 -8 0 -17 -14 -21 -32
-3 -18 -18 -57 -32 -86 -25 -50 -27 -71 -6 -58 5 3 20 28 33 55 24 52 39 51
39 -1 0 -42 16 -42 49 1 37 46 67 110 76 164 11 55 25 45 25 -19 0 -39 4 -54
12 -52 23 8 57 115 64 198 7 83 16 91 31 30 11 -42 25 -41 37 2 10 41 0 198
-14 212 -7 7 -10 6 -11 -4z"></path>
<path d="M3844 3316 c-3 -8 -17 -16 -32 -19 -32 -7 -70 -33 -60 -42 3 -3 23
-2 45 4 21 6 60 13 88 17 l50 6 -28 24 c-32 27 -55 31 -63 10z"></path>
<path d="M1690 3293 c-14 -9 -26 -17 -28 -18 -1 -1 0 -10 4 -19 9 -23 26 -19
48 10 24 33 9 50 -24 27z"></path>
<path d="M5290 3298 c0 -7 11 -26 24 -43 l23 -29 8 24 c6 18 2 28 -15 42 -26
21 -40 23 -40 6z"></path>
<path d="M4870 3289 c0 -5 5 -7 10 -4 6 3 10 8 10 11 0 2 -4 4 -10 4 -5 0 -10
-5 -10 -11z"></path>
<path d="M2883 3260 c-37 -15 -101 -88 -120 -138 -20 -52 -26 -213 -8 -219 6
-2 10 29 10 80 1 45 7 99 14 120 16 46 59 98 107 127 48 31 47 50 -3 30z"></path>
<path d="M4770 3249 c0 -28 24 -89 34 -86 6 2 13 25 16 50 6 46 5 47 -22 47
-15 0 -28 -5 -28 -11z"></path>
<path d="M4675 3229 c-33 -11 -84 -26 -113 -34 -65 -18 -158 -76 -167 -105 -4
-11 -2 -27 5 -35 8 -10 8 -15 -1 -20 -19 -12 -59 -108 -59 -142 0 -19 6 -36
15 -41 14 -7 13 -11 -5 -34 -11 -14 -20 -31 -20 -37 0 -12 69 -15 86 -3 13 9
63 85 89 135 18 34 20 36 25 16 3 -13 11 -24 17 -26 15 -5 63 70 79 125 25 80
33 83 34 10 0 -38 4 -68 9 -68 23 0 81 179 81 250 0 35 3 34 -75 9z"></path>
<path d="M4170 3212 c0 -5 14 -21 30 -37 21 -20 30 -24 30 -14 0 9 -10 25 -23
37 -24 23 -37 28 -37 14z"></path>
<path d="M4107 3172 c-21 -23 -21 -36 -3 -51 17 -14 66 -4 66 13 0 7 -10 22
-23 34 -23 22 -24 22 -40 4z"></path>
<path d="M3090 3065 c-49 -22 -100 -74 -100 -102 0 -28 16 -30 25 -3 11 36 20
21 21 -34 0 -70 31 -117 98 -151 84 -42 181 -30 235 28 20 22 23 33 19 72 -7
54 -67 141 -124 176 -47 29 -126 35 -174 14z m145 -155 c-3 -5 -16 -10 -28 -9
-20 1 -20 2 3 9 14 4 26 8 28 9 2 1 0 -3 -3 -9z m46 -13 c-10 -9 -11 -8 -5 6
3 10 9 15 12 12 3 -3 0 -11 -7 -18z m45 -9 c-3 -13 -6 -28 -6 -35 0 -21 -66
-53 -106 -52 -26 1 -31 3 -14 6 56 9 81 26 97 64 16 42 39 54 29 17z m35 -54
c-12 -28 -67 -64 -96 -64 -14 1 -10 6 17 21 39 20 67 62 69 101 1 21 2 20 11
-5 7 -20 7 -36 -1 -53z"></path>
<path d="M4258 3044 c-9 -15 -8 -144 1 -144 10 0 21 50 21 94 0 33 -14 64 -22
50z"></path>
<path d="M4207 2983 c-11 -19 -16 -69 -8 -82 11 -16 17 -6 26 40 6 33 -6 62
-18 42z"></path>
<path d="M1515 2915 c-16 -14 -25 -25 -19 -25 6 0 21 11 34 25 30 32 24 31
-15 0z"></path>
<path d="M3010 2630 c0 -5 5 -10 11 -10 6 0 41 -29 78 -64 70 -68 102 -86 154
-86 40 0 113 22 129 38 18 18 -20 16 -65 -3 -74 -31 -117 -15 -215 76 -58 55
-92 73 -92 49z"></path>
<path d="M3615 2511 c-8 -13 0 -17 86 -36 61 -13 85 -14 118 -5 69 18 51 35
-36 35 -43 0 -97 3 -120 8 -24 4 -44 3 -48 -2z"></path>
<path d="M4132 2458 c-31 -15 -22 -34 14 -30 30 4 54 18 54 33 0 12 -40 10
-68 -3z"></path>
<path d="M4370 2432 c0 -45 -16 -52 -63 -28 -62 31 -135 27 -217 -11 -66 -30
-332 -203 -345 -223 -19 -31 15 -14 138 69 178 118 227 143 303 149 48 3 71 0
109 -17 26 -11 60 -21 76 -21 22 0 42 -14 83 -56 45 -46 58 -55 78 -49 36 10
78 61 78 95 0 40 -18 38 -60 -5 -19 -19 -39 -35 -46 -35 -6 0 -15 21 -19 48
-4 26 -14 62 -22 80 -13 28 -20 32 -54 32 -36 0 -39 -2 -39 -28z"></path>
<path d="M3492 2160 c0 -14 2 -19 5 -12 2 6 2 18 0 25 -3 6 -5 1 -5 -13z"></path>
<path d="M2962 2130 c0 -14 2 -19 5 -12 2 6 2 18 0 25 -3 6 -5 1 -5 -13z"></path>
<path d="M2972 2075 c0 -16 2 -22 5 -12 2 9 2 23 0 30 -3 6 -5 -1 -5 -18z"></path>
<path d="M3280 2044 c-19 -7 -43 -13 -52 -13 -10 -1 -18 -5 -18 -10 0 -11 99
14 113 28 14 14 2 12 -43 -5z"></path>
<path d="M2981 2024 c0 -11 3 -14 6 -6 3 7 2 16 -1 19 -3 4 -6 -2 -5 -13z"></path>
<path d="M4320 1953 c-14 -3 -29 -9 -35 -15 -14 -15 83 -4 98 11 12 12 -12 13
-63 4z"></path>
<path d="M4268 1853 c6 -2 18 -2 25 0 6 3 1 5 -13 5 -14 0 -19 -2 -12 -5z"></path>
<path d="M4964 1703 c5 -23 4 -25 -4 -10 -20 32 -30 17 -30 -48 0 -68 -7 -79
-28 -45 -19 31 -31 24 -29 -16 2 -29 8 -39 32 -50 17 -7 38 -19 47 -26 14 -10
21 -9 37 6 44 40 43 115 0 199 -15 27 -32 21 -25 -10z"></path>
<path d="M4940 1265 c-14 -16 -10 -18 14 -9 9 3 16 10 16 15 0 14 -16 11 -30
-6z"></path>
<path d="M2915 1261 c-13 -21 40 -103 106 -166 38 -36 74 -65 79 -65 6 0 10
23 10 51 l0 50 63 -63 c63 -64 111 -97 124 -85 3 4 9 23 12 43 l6 35 55 -76
c30 -43 71 -99 90 -126 34 -49 63 -62 74 -34 3 9 43 66 88 127 82 109 83 110
86 77 2 -19 7 -38 12 -43 12 -12 78 34 135 95 l45 48 0 -49 c0 -34 4 -50 13
-50 19 0 114 87 147 135 35 50 51 109 29 100 -8 -3 -23 -25 -33 -48 -11 -23
-40 -61 -65 -86 -44 -43 -46 -43 -49 -20 -5 44 -24 80 -40 77 -8 -2 -24 -19
-34 -38 -19 -36 -103 -120 -119 -120 -5 0 -9 15 -9 33 0 37 -20 70 -35 59 -5
-4 -32 -41 -59 -82 -55 -84 -128 -179 -137 -179 -10 -1 -165 208 -180 242 -17
37 -31 30 -49 -26 -8 -26 -18 -47 -22 -47 -15 0 -105 99 -117 129 -8 17 -20
31 -27 31 -16 0 -35 -41 -37 -77 -1 -13 -5 -23 -9 -23 -13 0 -101 106 -114
137 -15 35 -30 48 -39 34z"></path>
<path d="M4772 1160 c0 -14 2 -19 5 -12 2 6 2 18 0 25 -3 6 -5 1 -5 -13z"></path>
<path d="M4620 1143 c0 -13 5 -23 10 -23 13 0 13 11 0 30 -8 12 -10 11 -10 -7z"></path>
<path d="M2880 1000 c0 -5 5 -10 10 -10 6 0 10 5 10 10 0 6 -4 10 -10 10 -5 0
-10 -4 -10 -10z"></path>
</g>
</svg>